<svg id="Layer_1" data-name="Layer 1" xmlns="http://www.w3.org/2000/svg" viewBox="0 0 298.63 287.76"><defs><style>.cls-1{font-size:10.98px;font-family:TimesNewRomanPSMT, Times New Roman;}.cls-2{letter-spacing:0.46em;}.cls-3{letter-spacing:0em;}.cls-4{letter-spacing:0.46em;}.cls-5{letter-spacing:0em;}</style></defs><title>analytic_data</title><text class="cls-1" transform="translate(3.44 18.77)">0.09<tspan class="cls-2" x="19.21" y="0">1</tspan><tspan class="cls-3" x="29.76" y="0">0.07</tspan><tspan class="cls-2" x="48.97" y="0">6</tspan><tspan class="cls-3" x="59.51" y="0">0.06</tspan><tspan class="cls-4" x="78.73" y="0">9</tspan><tspan x="89.27" y="0">0.06</tspan><tspan class="cls-4" x="108.48" y="0">6</tspan><tspan x="119.02" y="0">0.06</tspan><tspan class="cls-2" x="138.24" y="0">4</tspan><tspan class="cls-3" x="148.78" y="0">0.06</tspan><tspan class="cls-2" x="167.99" y="0">4</tspan><tspan class="cls-3" x="178.53" y="0">0.06</tspan><tspan class="cls-2" x="197.75" y="0">6</tspan><tspan class="cls-3" x="208.29" y="0">0.06</tspan><tspan class="cls-4" x="227.51" y="0">9</tspan><tspan x="238.05" y="0">0.07</tspan><tspan class="cls-2" x="257.26" y="0">6</tspan><tspan class="cls-5" x="267.8" y="0">0.091</tspan></text><text class="cls-1" transform="translate(3.44 47.45)">0.25<tspan class="cls-2" x="19.21" y="0">3</tspan><tspan class="cls-3" x="29.76" y="0">0.22</tspan><tspan class="cls-2" x="48.97" y="0">3</tspan><tspan class="cls-3" x="59.51" y="0">0.20</tspan><tspan class="cls-4" x="78.73" y="0">5</tspan><tspan x="89.27" y="0">0.19</tspan><tspan class="cls-4" x="108.48" y="0">5</tspan><tspan x="119.02" y="0">0.19</tspan><tspan class="cls-2" x="138.24" y="0">1</tspan><tspan class="cls-3" x="148.78" y="0">0.19</tspan><tspan class="cls-2" x="167.99" y="0">1</tspan><tspan class="cls-3" x="178.53" y="0">0.19</tspan><tspan class="cls-2" x="197.75" y="0">5</tspan><tspan class="cls-3" x="208.29" y="0">0.20</tspan><tspan class="cls-4" x="227.51" y="0">5</tspan><tspan x="238.05" y="0">0.22</tspan><tspan class="cls-2" x="257.26" y="0">3</tspan><tspan class="cls-5" x="267.8" y="0">0.253</tspan></text><text class="cls-1" transform="translate(3.44 76.13)">0.39<tspan class="cls-2" x="19.21" y="0">2</tspan><tspan class="cls-3" x="29.76" y="0">0.35</tspan><tspan class="cls-2" x="48.97" y="0">7</tspan><tspan class="cls-3" x="59.51" y="0">0.33</tspan><tspan class="cls-4" x="78.73" y="0">4</tspan><tspan x="89.27" y="0">0.32</tspan><tspan class="cls-4" x="108.48" y="0">0</tspan><tspan x="119.02" y="0">0.31</tspan><tspan class="cls-2" x="138.24" y="0">3</tspan><tspan class="cls-3" x="148.78" y="0">0.31</tspan><tspan class="cls-2" x="167.99" y="0">3</tspan><tspan class="cls-3" x="178.53" y="0">0.32</tspan><tspan class="cls-2" x="197.75" y="0">0</tspan><tspan class="cls-3" x="208.29" y="0">0.33</tspan><tspan class="cls-4" x="227.51" y="0">4</tspan><tspan x="238.05" y="0">0.35</tspan><tspan class="cls-2" x="257.26" y="0">7</tspan><tspan class="cls-5" x="267.8" y="0">0.392</tspan></text><text class="cls-1" transform="translate(3.44 104.81)">0.51<tspan class="cls-2" x="19.21" y="0">7</tspan><tspan class="cls-3" x="29.76" y="0">0.48</tspan><tspan class="cls-2" x="48.97" y="0">0</tspan><tspan class="cls-3" x="59.51" y="0">0.45</tspan><tspan class="cls-4" x="78.73" y="0">3</tspan><tspan x="89.27" y="0">0.43</tspan><tspan class="cls-4" x="108.48" y="0">7</tspan><tspan x="119.02" y="0">0.42</tspan><tspan class="cls-2" x="138.24" y="0">9</tspan><tspan class="cls-3" x="148.78" y="0">0.42</tspan><tspan class="cls-2" x="167.99" y="0">9</tspan><tspan class="cls-3" x="178.53" y="0">0.43</tspan><tspan class="cls-2" x="197.75" y="0">7</tspan><tspan class="cls-3" x="208.29" y="0">0.45</tspan><tspan class="cls-4" x="227.51" y="0">3</tspan><tspan x="238.05" y="0">0.48</tspan><tspan class="cls-2" x="257.26" y="0">0</tspan><tspan class="cls-5" x="267.8" y="0">0.517</tspan></text><text class="cls-1" transform="translate(3.44 133.49)">0.62<tspan class="cls-2" x="19.21" y="0">9</tspan><tspan class="cls-3" x="29.76" y="0">0.59</tspan><tspan class="cls-2" x="48.97" y="0">1</tspan><tspan class="cls-3" x="59.51" y="0">0.56</tspan><tspan class="cls-4" x="78.73" y="0">3</tspan><tspan x="89.27" y="0">0.54</tspan><tspan class="cls-4" x="108.48" y="0">6</tspan><tspan x="119.02" y="0">0.53</tspan><tspan class="cls-2" x="138.24" y="0">8</tspan><tspan class="cls-3" x="148.78" y="0">0.53</tspan><tspan class="cls-2" x="167.99" y="0">8</tspan><tspan class="cls-3" x="178.53" y="0">0.54</tspan><tspan class="cls-2" x="197.75" y="0">6</tspan><tspan class="cls-3" x="208.29" y="0">0.56</tspan><tspan class="cls-4" x="227.51" y="0">3</tspan><tspan x="238.05" y="0">0.59</tspan><tspan class="cls-2" x="257.26" y="0">1</tspan><tspan class="cls-5" x="267.8" y="0">0.629</tspan></text><text class="cls-1" transform="translate(3.44 162.17)">0.72<tspan class="cls-2" x="19.21" y="0">9</tspan><tspan class="cls-3" x="29.76" y="0">0.69</tspan><tspan class="cls-2" x="48.97" y="0">1</tspan><tspan class="cls-3" x="59.51" y="0">0.66</tspan><tspan class="cls-4" x="78.73" y="0">3</tspan><tspan x="89.27" y="0">0.64</tspan><tspan class="cls-4" x="108.48" y="0">6</tspan><tspan x="119.02" y="0">0.63</tspan><tspan class="cls-2" x="138.24" y="0">8</tspan><tspan class="cls-3" x="148.78" y="0">0.63</tspan><tspan class="cls-2" x="167.99" y="0">8</tspan><tspan class="cls-3" x="178.53" y="0">0.64</tspan><tspan class="cls-2" x="197.75" y="0">6</tspan><tspan class="cls-3" x="208.29" y="0">0.66</tspan><tspan class="cls-4" x="227.51" y="0">3</tspan><tspan x="238.05" y="0">0.69</tspan><tspan class="cls-2" x="257.26" y="0">1</tspan><tspan class="cls-5" x="267.8" y="0">0.729</tspan></text><text class="cls-1" transform="translate(3.44 190.85)">0.81<tspan class="cls-2" x="19.21" y="0">7</tspan><tspan class="cls-3" x="29.76" y="0">0.78</tspan><tspan class="cls-2" x="48.97" y="0">0</tspan><tspan class="cls-3" x="59.51" y="0">0.75</tspan><tspan class="cls-4" x="78.73" y="0">3</tspan><tspan x="89.27" y="0">0.73</tspan><tspan class="cls-4" x="108.48" y="0">7</tspan><tspan x="119.02" y="0">0.72</tspan><tspan class="cls-2" x="138.24" y="0">9</tspan><tspan class="cls-3" x="148.78" y="0">0.72</tspan><tspan class="cls-2" x="167.99" y="0">9</tspan><tspan class="cls-3" x="178.53" y="0">0.73</tspan><tspan class="cls-2" x="197.75" y="0">7</tspan><tspan class="cls-3" x="208.29" y="0">0.75</tspan><tspan class="cls-4" x="227.51" y="0">3</tspan><tspan x="238.05" y="0">0.78</tspan><tspan class="cls-2" x="257.26" y="0">0</tspan><tspan class="cls-5" x="267.8" y="0">0.817</tspan></text><text class="cls-1" transform="translate(3.44 219.53)">0.89<tspan class="cls-2" x="19.21" y="0">2</tspan><tspan class="cls-3" x="29.76" y="0">0.85</tspan><tspan class="cls-2" x="48.97" y="0">7</tspan><tspan class="cls-3" x="59.51" y="0">0.83</tspan><tspan class="cls-4" x="78.73" y="0">4</tspan><tspan x="89.27" y="0">0.82</tspan><tspan class="cls-4" x="108.48" y="0">0</tspan><tspan x="119.02" y="0">0.81</tspan><tspan class="cls-2" x="138.24" y="0">3</tspan><tspan class="cls-3" x="148.78" y="0">0.81</tspan><tspan class="cls-2" x="167.99" y="0">3</tspan><tspan class="cls-3" x="178.53" y="0">0.82</tspan><tspan class="cls-2" x="197.75" y="0">0</tspan><tspan class="cls-3" x="208.29" y="0">0.83</tspan><tspan class="cls-4" x="227.51" y="0">4</tspan><tspan x="238.05" y="0">0.85</tspan><tspan class="cls-2" x="257.26" y="0">7</tspan><tspan class="cls-5" x="267.8" y="0">0.892</tspan></text><text class="cls-1" transform="translate(3.44 248.2)">0.95<tspan class="cls-2" x="19.21" y="0">3</tspan><tspan class="cls-3" x="29.76" y="0">0.92</tspan><tspan class="cls-2" x="48.97" y="0">3</tspan><tspan class="cls-3" x="59.51" y="0">0.90</tspan><tspan class="cls-4" x="78.73" y="0">5</tspan><tspan x="89.27" y="0">0.89</tspan><tspan class="cls-4" x="108.48" y="0">5</tspan><tspan x="119.02" y="0">0.89</tspan><tspan class="cls-2" x="138.24" y="0">1</tspan><tspan class="cls-3" x="148.78" y="0">0.89</tspan><tspan class="cls-2" x="167.99" y="0">1</tspan><tspan class="cls-3" x="178.53" y="0">0.89</tspan><tspan class="cls-2" x="197.75" y="0">5</tspan><tspan class="cls-3" x="208.29" y="0">0.90</tspan><tspan class="cls-4" x="227.51" y="0">5</tspan><tspan x="238.05" y="0">0.92</tspan><tspan class="cls-2" x="257.26" y="0">3</tspan><tspan class="cls-5" x="267.8" y="0">0.953</tspan></text><text class="cls-1" transform="translate(3.44 276.88)">0.99<tspan class="cls-2" x="19.21" y="0">1</tspan><tspan class="cls-3" x="29.76" y="0">0.97</tspan><tspan class="cls-2" x="48.97" y="0">6</tspan><tspan class="cls-3" x="59.51" y="0">0.96</tspan><tspan class="cls-4" x="78.73" y="0">9</tspan><tspan x="89.27" y="0">0.96</tspan><tspan class="cls-4" x="108.48" y="0">6</tspan><tspan x="119.02" y="0">0.96</tspan><tspan class="cls-2" x="138.24" y="0">4</tspan><tspan class="cls-3" x="148.78" y="0">0.96</tspan><tspan class="cls-2" x="167.99" y="0">4</tspan><tspan class="cls-3" x="178.53" y="0">0.96</tspan><tspan class="cls-2" x="197.75" y="0">6</tspan><tspan class="cls-3" x="208.29" y="0">0.96</tspan><tspan class="cls-4" x="227.51" y="0">9</tspan><tspan x="238.05" y="0">0.97</tspan><tspan class="cls-2" x="257.26" y="0">6</tspan><tspan class="cls-5" x="267.8" y="0">0.991</tspan></text><rect x="0.02" y="0.05" width="0.96" height="287.76"/><rect x="29.78" y="1.01" width="0.96" height="286.8"/><rect x="59.54" y="1.01" width="0.96" height="286.8"/><rect x="89.3" y="1.01" width="0.96" height="286.8"/><rect x="119.06" y="1.01" width="0.96" height="286.8"/><rect x="148.82" y="1.01" width="0.96" height="286.8"/><rect x="178.58" y="1.01" width="0.96" height="286.8"/><rect x="208.34" y="1.01" width="0.96" height="286.8"/><rect x="238.1" y="1.01" width="0.96" height="286.8"/><rect x="267.86" y="1.01" width="0.96" height="286.8"/><rect x="297.62" y="1.01" width="0.96" height="286.8"/><rect x="0.98" y="0.05" width="297.6" height="0.96"/><rect x="0.98" y="28.73" width="297.6" height="0.96"/><rect x="0.98" y="57.41" width="297.6" height="0.96"/><rect x="0.98" y="86.09" width="297.6" height="0.96"/><rect x="0.98" y="114.77" width="297.6" height="0.96"/><rect x="0.98" y="143.45" width="297.6" height="0.96"/><rect x="0.98" y="172.13" width="297.6" height="0.96"/><rect x="0.98" y="200.81" width="297.6" height="0.96"/><rect x="0.98" y="229.49" width="297.6" height="0.96"/><rect x="0.98" y="258.17" width="297.6" height="0.96"/><rect x="0.98" y="286.85" width="297.6" height="0.96"/></svg>