<svg id="Layer_1" data-name="Layer 1" xmlns="http://www.w3.org/2000/svg" viewBox="0 0 298.59 287.75"><defs><style>.cls-1{font-size:10.98px;font-family:TimesNewRomanPSMT, Times New Roman;}.cls-2{letter-spacing:0.46em;}.cls-3{letter-spacing:0em;}.cls-4{letter-spacing:0.46em;}.cls-5{letter-spacing:0em;}</style></defs><title>explicit_data</title><text class="cls-1" transform="translate(3.41 18.72)">0.10<tspan class="cls-2" x="19.21" y="0">9</tspan><tspan class="cls-3" x="29.76" y="0">0.07</tspan><tspan class="cls-2" x="48.97" y="0">5</tspan><tspan class="cls-3" x="59.51" y="0">0.06</tspan><tspan class="cls-4" x="78.73" y="0">9</tspan><tspan x="89.27" y="0">0.06</tspan><tspan class="cls-4" x="108.48" y="0">5</tspan><tspan x="119.02" y="0">0.06</tspan><tspan class="cls-2" x="138.24" y="0">4</tspan><tspan class="cls-3" x="148.78" y="0">0.06</tspan><tspan class="cls-2" x="167.99" y="0">4</tspan><tspan class="cls-3" x="178.53" y="0">0.06</tspan><tspan class="cls-2" x="197.75" y="0">5</tspan><tspan class="cls-3" x="208.29" y="0">0.06</tspan><tspan class="cls-4" x="227.51" y="0">9</tspan><tspan x="238.05" y="0">0.07</tspan><tspan class="cls-2" x="257.26" y="0">5</tspan><tspan class="cls-5" x="267.8" y="0">0.109</tspan></text><text class="cls-1" transform="translate(3.41 47.4)">0.26<tspan class="cls-2" x="19.21" y="0">0</tspan><tspan class="cls-3" x="29.76" y="0">0.22</tspan><tspan class="cls-2" x="48.97" y="0">5</tspan><tspan class="cls-3" x="59.51" y="0">0.20</tspan><tspan class="cls-4" x="78.73" y="0">6</tspan><tspan x="89.27" y="0">0.19</tspan><tspan class="cls-4" x="108.48" y="0">6</tspan><tspan x="119.02" y="0">0.19</tspan><tspan class="cls-2" x="138.24" y="0">1</tspan><tspan class="cls-3" x="148.78" y="0">0.19</tspan><tspan class="cls-2" x="167.99" y="0">1</tspan><tspan class="cls-3" x="178.53" y="0">0.19</tspan><tspan class="cls-2" x="197.75" y="0">6</tspan><tspan class="cls-3" x="208.29" y="0">0.20</tspan><tspan class="cls-4" x="227.51" y="0">6</tspan><tspan x="238.05" y="0">0.22</tspan><tspan class="cls-2" x="257.26" y="0">5</tspan><tspan class="cls-5" x="267.8" y="0">0.260</tspan></text><text class="cls-1" transform="translate(3.41 76.08)">0.39<tspan class="cls-2" x="19.21" y="0">7</tspan><tspan class="cls-3" x="29.76" y="0">0.36</tspan><tspan class="cls-2" x="48.97" y="0">0</tspan><tspan class="cls-3" x="59.51" y="0">0.33</tspan><tspan class="cls-4" x="78.73" y="0">6</tspan><tspan x="89.27" y="0">0.32</tspan><tspan class="cls-4" x="108.48" y="0">1</tspan><tspan x="119.02" y="0">0.31</tspan><tspan class="cls-2" x="138.24" y="0">4</tspan><tspan class="cls-3" x="148.78" y="0">0.31</tspan><tspan class="cls-2" x="167.99" y="0">4</tspan><tspan class="cls-3" x="178.53" y="0">0.32</tspan><tspan class="cls-2" x="197.75" y="0">1</tspan><tspan class="cls-3" x="208.29" y="0">0.33</tspan><tspan class="cls-4" x="227.51" y="0">6</tspan><tspan x="238.05" y="0">0.36</tspan><tspan class="cls-2" x="257.26" y="0">0</tspan><tspan class="cls-5" x="267.8" y="0">0.397</tspan></text><text class="cls-1" transform="translate(3.41 104.76)">0.52<tspan class="cls-2" x="19.21" y="0">0</tspan><tspan class="cls-3" x="29.76" y="0">0.48</tspan><tspan class="cls-2" x="48.97" y="0">2</tspan><tspan class="cls-3" x="59.51" y="0">0.45</tspan><tspan class="cls-4" x="78.73" y="0">5</tspan><tspan x="89.27" y="0">0.43</tspan><tspan class="cls-4" x="108.48" y="0">8</tspan><tspan x="119.02" y="0">0.43</tspan><tspan class="cls-2" x="138.24" y="0">1</tspan><tspan class="cls-3" x="148.78" y="0">0.43</tspan><tspan class="cls-2" x="167.99" y="0">1</tspan><tspan class="cls-3" x="178.53" y="0">0.43</tspan><tspan class="cls-2" x="197.75" y="0">9</tspan><tspan class="cls-3" x="208.29" y="0">0.45</tspan><tspan class="cls-4" x="227.51" y="0">5</tspan><tspan x="238.05" y="0">0.48</tspan><tspan class="cls-2" x="257.26" y="0">2</tspan><tspan class="cls-5" x="267.8" y="0">0.520</tspan></text><text class="cls-1" transform="translate(3.41 133.44)">0.63<tspan class="cls-2" x="19.21" y="0">1</tspan><tspan class="cls-3" x="29.76" y="0">0.59</tspan><tspan class="cls-2" x="48.97" y="0">3</tspan><tspan class="cls-3" x="59.51" y="0">0.56</tspan><tspan class="cls-4" x="78.73" y="0">5</tspan><tspan x="89.27" y="0">0.54</tspan><tspan class="cls-4" x="108.48" y="0">7</tspan><tspan x="119.02" y="0">0.53</tspan><tspan class="cls-2" x="138.24" y="0">9</tspan><tspan class="cls-3" x="148.78" y="0">0.53</tspan><tspan class="cls-2" x="167.99" y="0">9</tspan><tspan class="cls-3" x="178.53" y="0">0.54</tspan><tspan class="cls-2" x="197.75" y="0">7</tspan><tspan class="cls-3" x="208.29" y="0">0.56</tspan><tspan class="cls-4" x="227.51" y="0">5</tspan><tspan x="238.05" y="0">0.59</tspan><tspan class="cls-2" x="257.26" y="0">3</tspan><tspan class="cls-5" x="267.8" y="0">0.631</tspan></text><text class="cls-1" transform="translate(3.41 162.12)">0.73<tspan class="cls-2" x="19.21" y="0">1</tspan><tspan class="cls-3" x="29.76" y="0">0.69</tspan><tspan class="cls-2" x="48.97" y="0">3</tspan><tspan class="cls-3" x="59.51" y="0">0.66</tspan><tspan class="cls-4" x="78.73" y="0">5</tspan><tspan x="89.27" y="0">0.64</tspan><tspan class="cls-4" x="108.48" y="0">7</tspan><tspan x="119.02" y="0">0.63</tspan><tspan class="cls-2" x="138.24" y="0">9</tspan><tspan class="cls-3" x="148.78" y="0">0.63</tspan><tspan class="cls-2" x="167.99" y="0">9</tspan><tspan class="cls-3" x="178.53" y="0">0.64</tspan><tspan class="cls-2" x="197.75" y="0">7</tspan><tspan class="cls-3" x="208.29" y="0">0.66</tspan><tspan class="cls-4" x="227.51" y="0">5</tspan><tspan x="238.05" y="0">0.69</tspan><tspan class="cls-2" x="257.26" y="0">3</tspan><tspan class="cls-5" x="267.8" y="0">0.731</tspan></text><text class="cls-1" transform="translate(3.41 190.8)">0.82<tspan class="cls-2" x="19.21" y="0">0</tspan><tspan class="cls-3" x="29.76" y="0">0.78</tspan><tspan class="cls-2" x="48.97" y="0">2</tspan><tspan class="cls-3" x="59.51" y="0">0.75</tspan><tspan class="cls-4" x="78.73" y="0">5</tspan><tspan x="89.27" y="0">0.73</tspan><tspan class="cls-4" x="108.48" y="0">8</tspan><tspan x="119.02" y="0">0.73</tspan><tspan class="cls-2" x="138.24" y="0">1</tspan><tspan class="cls-3" x="148.78" y="0">0.73</tspan><tspan class="cls-2" x="167.99" y="0">1</tspan><tspan class="cls-3" x="178.53" y="0">0.73</tspan><tspan class="cls-2" x="197.75" y="0">9</tspan><tspan class="cls-3" x="208.29" y="0">0.75</tspan><tspan class="cls-4" x="227.51" y="0">5</tspan><tspan x="238.05" y="0">0.78</tspan><tspan class="cls-2" x="257.26" y="0">2</tspan><tspan class="cls-5" x="267.8" y="0">0.820</tspan></text><text class="cls-1" transform="translate(3.41 219.48)">0.89<tspan class="cls-2" x="19.21" y="0">7</tspan><tspan class="cls-3" x="29.76" y="0">0.86</tspan><tspan class="cls-2" x="48.97" y="0">0</tspan><tspan class="cls-3" x="59.51" y="0">0.83</tspan><tspan class="cls-4" x="78.73" y="0">6</tspan><tspan x="89.27" y="0">0.82</tspan><tspan class="cls-4" x="108.48" y="0">1</tspan><tspan x="119.02" y="0">0.81</tspan><tspan class="cls-2" x="138.24" y="0">4</tspan><tspan class="cls-3" x="148.78" y="0">0.81</tspan><tspan class="cls-2" x="167.99" y="0">4</tspan><tspan class="cls-3" x="178.53" y="0">0.82</tspan><tspan class="cls-2" x="197.75" y="0">1</tspan><tspan class="cls-3" x="208.29" y="0">0.83</tspan><tspan class="cls-4" x="227.51" y="0">6</tspan><tspan x="238.05" y="0">0.86</tspan><tspan class="cls-2" x="257.26" y="0">0</tspan><tspan class="cls-5" x="267.8" y="0">0.897</tspan></text><text class="cls-1" transform="translate(3.41 248.16)">0.96<tspan class="cls-2" x="19.21" y="0">0</tspan><tspan class="cls-3" x="29.76" y="0">0.92</tspan><tspan class="cls-2" x="48.97" y="0">5</tspan><tspan class="cls-3" x="59.51" y="0">0.90</tspan><tspan class="cls-4" x="78.73" y="0">6</tspan><tspan x="89.27" y="0">0.89</tspan><tspan class="cls-4" x="108.48" y="0">6</tspan><tspan x="119.02" y="0">0.89</tspan><tspan class="cls-2" x="138.24" y="0">1</tspan><tspan class="cls-3" x="148.78" y="0">0.89</tspan><tspan class="cls-2" x="167.99" y="0">1</tspan><tspan class="cls-3" x="178.53" y="0">0.89</tspan><tspan class="cls-2" x="197.75" y="0">6</tspan><tspan class="cls-3" x="208.29" y="0">0.90</tspan><tspan class="cls-4" x="227.51" y="0">6</tspan><tspan x="238.05" y="0">0.92</tspan><tspan class="cls-2" x="257.26" y="0">5</tspan><tspan class="cls-5" x="267.8" y="0">0.960</tspan></text><text class="cls-1" transform="translate(3.41 276.84)">1.00<tspan class="cls-2" x="19.21" y="0">9</tspan><tspan class="cls-3" x="29.76" y="0">0.97</tspan><tspan class="cls-2" x="48.97" y="0">5</tspan><tspan class="cls-3" x="59.51" y="0">0.96</tspan><tspan class="cls-4" x="78.73" y="0">9</tspan><tspan x="89.27" y="0">0.96</tspan><tspan class="cls-4" x="108.48" y="0">5</tspan><tspan x="119.02" y="0">0.96</tspan><tspan class="cls-2" x="138.24" y="0">4</tspan><tspan class="cls-3" x="148.78" y="0">0.96</tspan><tspan class="cls-2" x="167.99" y="0">4</tspan><tspan class="cls-3" x="178.53" y="0">0.96</tspan><tspan class="cls-2" x="197.75" y="0">5</tspan><tspan class="cls-3" x="208.29" y="0">0.96</tspan><tspan class="cls-4" x="227.51" y="0">9</tspan><tspan x="238.05" y="0">0.97</tspan><tspan class="cls-2" x="257.26" y="0">5</tspan><tspan class="cls-5" x="267.8" y="0">1.009</tspan></text><rect x="-0.01" width="0.96" height="287.76"/><rect x="29.75" y="0.96" width="0.96" height="286.8"/><rect x="59.51" y="0.96" width="0.96" height="286.8"/><rect x="89.27" y="0.96" width="0.96" height="286.8"/><rect x="119.03" y="0.96" width="0.96" height="286.8"/><rect x="148.79" y="0.96" width="0.96" height="286.8"/><rect x="178.55" y="0.96" width="0.96" height="286.8"/><rect x="208.31" y="0.96" width="0.96" height="286.8"/><rect x="238.07" y="0.96" width="0.96" height="286.8"/><rect x="267.83" y="0.96" width="0.96" height="286.8"/><rect x="297.59" y="0.96" width="0.96" height="286.8"/><rect x="0.95" width="297.6" height="0.96"/><rect x="0.95" y="28.68" width="297.6" height="0.96"/><rect x="0.95" y="57.36" width="297.6" height="0.96"/><rect x="0.95" y="86.04" width="297.6" height="0.96"/><rect x="0.95" y="114.72" width="297.6" height="0.96"/><rect x="0.95" y="143.4" width="297.6" height="0.96"/><rect x="0.95" y="172.08" width="297.6" height="0.96"/><rect x="0.95" y="200.76" width="297.6" height="0.96"/><rect x="0.95" y="229.44" width="297.6" height="0.96"/><rect x="0.95" y="258.12" width="297.6" height="0.96"/><rect x="0.95" y="286.8" width="297.6" height="0.96"/></svg>