<svg id="Layer_1" data-name="Layer 1" xmlns="http://www.w3.org/2000/svg" viewBox="0 0 566.93 566.93"><defs><style>.cls-1,.cls-3,.cls-4,.cls-5,.cls-8{fill:none;stroke:#231815;stroke-miterlimit:10;}.cls-1{stroke-width:0.98px;}.cls-2,.cls-6,.cls-7,.cls-9{fill:#231815;}.cls-3{stroke-width:2.06px;}.cls-5{stroke-width:1.11px;}.cls-6,.cls-7{isolation:isolate;}.cls-6,.cls-7,.cls-9{font-size:36px;}.cls-6,.cls-9{font-family:TimesNewRomanPS-ItalicMT, Times New Roman;font-style:italic;}.cls-7{font-family:TimesNewRomanPSMT, Times New Roman;}.cls-8{stroke-width:0.99px;}</style></defs><title>problem_def</title><line class="cls-1" x1="81.83" y1="503.69" x2="535.37" y2="503.69"/><line class="cls-1" x1="81.83" y1="503.69" x2="81.83" y2="50.15"/><polygon class="cls-2" points="77.31 60.78 81.83 39.52 86.35 60.78 77.31 60.78"/><polygon class="cls-2" points="514.12 499.17 535.37 503.69 514.12 508.21 514.12 499.17"/><line class="cls-3" x1="81.83" y1="106.84" x2="478.68" y2="106.84"/><line class="cls-3" x1="81.83" y1="503.69" x2="478.68" y2="503.69"/><line class="cls-3" x1="81.83" y1="503.69" x2="81.83" y2="106.84"/><line class="cls-3" x1="478.68" y1="503.69" x2="478.68" y2="106.84"/><line class="cls-4" x1="86.76" y1="106.17" x2="96.76" y2="96.17"/><line class="cls-4" x1="99.76" y1="106.17" x2="109.76" y2="96.17"/><line class="cls-4" x1="112.76" y1="106.17" x2="122.76" y2="96.17"/><line class="cls-4" x1="125.76" y1="106.17" x2="135.76" y2="96.17"/><line class="cls-4" x1="138.76" y1="106.17" x2="148.76" y2="96.17"/><line class="cls-4" x1="151.76" y1="106.17" x2="161.76" y2="96.17"/><line class="cls-4" x1="164.76" y1="106.17" x2="174.76" y2="96.17"/><line class="cls-4" x1="177.76" y1="106.17" x2="187.76" y2="96.17"/><line class="cls-4" x1="190.76" y1="106.17" x2="200.76" y2="96.17"/><line class="cls-4" x1="203.76" y1="106.17" x2="213.76" y2="96.17"/><line class="cls-4" x1="216.76" y1="106.17" x2="226.76" y2="96.17"/><line class="cls-4" x1="229.76" y1="106.17" x2="239.76" y2="96.17"/><line class="cls-4" x1="242.76" y1="106.17" x2="252.76" y2="96.17"/><line class="cls-4" x1="255.76" y1="106.17" x2="265.76" y2="96.17"/><line class="cls-4" x1="268.76" y1="106.17" x2="278.76" y2="96.17"/><line class="cls-4" x1="281.76" y1="106.17" x2="291.76" y2="96.17"/><line class="cls-4" x1="294.76" y1="106.17" x2="304.76" y2="96.17"/><line class="cls-4" x1="307.76" y1="106.17" x2="317.76" y2="96.17"/><line class="cls-4" x1="320.76" y1="106.17" x2="330.76" y2="96.17"/><line class="cls-4" x1="333.76" y1="106.17" x2="343.76" y2="96.17"/><line class="cls-4" x1="346.76" y1="106.17" x2="356.76" y2="96.17"/><line class="cls-4" x1="359.76" y1="106.17" x2="369.76" y2="96.17"/><line class="cls-4" x1="372.76" y1="106.17" x2="382.76" y2="96.17"/><line class="cls-4" x1="385.76" y1="106.17" x2="395.76" y2="96.17"/><line class="cls-4" x1="398.76" y1="106.17" x2="408.76" y2="96.17"/><line class="cls-4" x1="411.76" y1="106.17" x2="421.76" y2="96.17"/><line class="cls-4" x1="424.76" y1="106.17" x2="434.76" y2="96.17"/><line class="cls-4" x1="437.76" y1="106.17" x2="447.76" y2="96.17"/><line class="cls-4" x1="450.76" y1="106.17" x2="460.76" y2="96.17"/><line class="cls-4" x1="463.76" y1="106.17" x2="473.76" y2="96.17"/><line class="cls-4" x1="86.76" y1="514.36" x2="96.76" y2="504.36"/><line class="cls-4" x1="99.76" y1="514.36" x2="109.76" y2="504.36"/><line class="cls-4" x1="112.76" y1="514.36" x2="122.76" y2="504.36"/><line class="cls-4" x1="125.76" y1="514.36" x2="135.76" y2="504.36"/><line class="cls-4" x1="138.76" y1="514.36" x2="148.76" y2="504.36"/><line class="cls-4" x1="151.76" y1="514.36" x2="161.76" y2="504.36"/><line class="cls-4" x1="164.76" y1="514.36" x2="174.76" y2="504.36"/><line class="cls-4" x1="177.76" y1="514.36" x2="187.76" y2="504.36"/><line class="cls-4" x1="190.76" y1="514.36" x2="200.76" y2="504.36"/><line class="cls-4" x1="203.76" y1="514.36" x2="213.76" y2="504.36"/><line class="cls-4" x1="216.76" y1="514.36" x2="226.76" y2="504.36"/><line class="cls-4" x1="229.76" y1="514.36" x2="239.76" y2="504.36"/><line class="cls-4" x1="242.76" y1="514.36" x2="252.76" y2="504.36"/><line class="cls-4" x1="255.76" y1="514.36" x2="265.76" y2="504.36"/><line class="cls-4" x1="268.76" y1="514.36" x2="278.76" y2="504.36"/><line class="cls-4" x1="281.76" y1="514.36" x2="291.76" y2="504.36"/><line class="cls-4" x1="294.76" y1="514.36" x2="304.76" y2="504.36"/><line class="cls-4" x1="307.76" y1="514.36" x2="317.76" y2="504.36"/><line class="cls-4" x1="320.76" y1="514.36" x2="330.76" y2="504.36"/><line class="cls-4" x1="333.76" y1="514.36" x2="343.76" y2="504.36"/><line class="cls-4" x1="346.76" y1="514.36" x2="356.76" y2="504.36"/><line class="cls-4" x1="359.76" y1="514.36" x2="369.76" y2="504.36"/><line class="cls-4" x1="372.76" y1="514.36" x2="382.76" y2="504.36"/><line class="cls-4" x1="385.76" y1="514.36" x2="395.76" y2="504.36"/><line class="cls-4" x1="398.76" y1="514.36" x2="408.76" y2="504.36"/><line class="cls-4" x1="411.76" y1="514.36" x2="421.76" y2="504.36"/><line class="cls-4" x1="424.76" y1="514.36" x2="434.76" y2="504.36"/><line class="cls-4" x1="437.76" y1="514.36" x2="447.76" y2="504.36"/><line class="cls-4" x1="450.76" y1="514.36" x2="460.76" y2="504.36"/><line class="cls-4" x1="463.76" y1="514.36" x2="473.76" y2="504.36"/><line class="cls-4" x1="71.16" y1="498.77" x2="81.16" y2="488.77"/><line class="cls-4" x1="71.16" y1="485.77" x2="81.16" y2="475.77"/><line class="cls-4" x1="71.16" y1="472.77" x2="81.16" y2="462.77"/><line class="cls-4" x1="71.16" y1="459.77" x2="81.16" y2="449.77"/><line class="cls-4" x1="71.16" y1="446.77" x2="81.16" y2="436.77"/><line class="cls-4" x1="71.16" y1="433.77" x2="81.16" y2="423.77"/><line class="cls-4" x1="71.16" y1="420.77" x2="81.16" y2="410.77"/><line class="cls-4" x1="71.16" y1="407.77" x2="81.16" y2="397.77"/><line class="cls-4" x1="71.16" y1="394.77" x2="81.16" y2="384.77"/><line class="cls-4" x1="71.16" y1="381.77" x2="81.16" y2="371.77"/><line class="cls-4" x1="71.16" y1="368.77" x2="81.16" y2="358.77"/><line class="cls-4" x1="71.16" y1="355.77" x2="81.16" y2="345.77"/><line class="cls-4" x1="71.16" y1="342.77" x2="81.16" y2="332.77"/><line class="cls-4" x1="71.16" y1="329.77" x2="81.16" y2="319.77"/><line class="cls-4" x1="71.16" y1="316.77" x2="81.16" y2="306.77"/><line class="cls-4" x1="71.16" y1="303.77" x2="81.16" y2="293.77"/><line class="cls-4" x1="71.16" y1="290.77" x2="81.16" y2="280.77"/><line class="cls-4" x1="71.16" y1="277.77" x2="81.16" y2="267.77"/><line class="cls-4" x1="71.16" y1="264.77" x2="81.16" y2="254.77"/><line class="cls-4" x1="71.16" y1="251.77" x2="81.16" y2="241.77"/><line class="cls-4" x1="71.16" y1="238.77" x2="81.16" y2="228.77"/><line class="cls-4" x1="71.16" y1="225.77" x2="81.16" y2="215.77"/><line class="cls-4" x1="71.16" y1="212.77" x2="81.16" y2="202.77"/><line class="cls-4" x1="71.16" y1="199.77" x2="81.16" y2="189.77"/><line class="cls-4" x1="71.16" y1="186.77" x2="81.16" y2="176.77"/><line class="cls-4" x1="71.16" y1="173.77" x2="81.16" y2="163.77"/><line class="cls-4" x1="71.16" y1="160.77" x2="81.16" y2="150.77"/><line class="cls-4" x1="71.16" y1="147.77" x2="81.16" y2="137.77"/><line class="cls-4" x1="71.16" y1="134.77" x2="81.16" y2="124.77"/><line class="cls-4" x1="71.16" y1="121.77" x2="81.16" y2="111.77"/><line class="cls-4" x1="479.35" y1="498.77" x2="489.35" y2="488.77"/><line class="cls-4" x1="479.35" y1="485.77" x2="489.35" y2="475.77"/><line class="cls-4" x1="479.35" y1="472.77" x2="489.35" y2="462.77"/><line class="cls-4" x1="479.35" y1="459.77" x2="489.35" y2="449.77"/><line class="cls-4" x1="479.35" y1="446.77" x2="489.35" y2="436.77"/><line class="cls-4" x1="479.35" y1="433.77" x2="489.35" y2="423.77"/><line class="cls-4" x1="479.35" y1="420.77" x2="489.35" y2="410.77"/><line class="cls-4" x1="479.35" y1="407.77" x2="489.35" y2="397.77"/><line class="cls-4" x1="479.35" y1="394.77" x2="489.35" y2="384.77"/><line class="cls-4" x1="479.35" y1="381.77" x2="489.35" y2="371.77"/><line class="cls-4" x1="479.35" y1="368.77" x2="489.35" y2="358.77"/><line class="cls-4" x1="479.35" y1="355.77" x2="489.35" y2="345.77"/><line class="cls-4" x1="479.35" y1="342.77" x2="489.35" y2="332.77"/><line class="cls-4" x1="479.35" y1="329.77" x2="489.35" y2="319.77"/><line class="cls-4" x1="479.35" y1="316.77" x2="489.35" y2="306.77"/><line class="cls-4" x1="479.35" y1="303.77" x2="489.35" y2="293.77"/><line class="cls-4" x1="479.35" y1="290.77" x2="489.35" y2="280.77"/><line class="cls-4" x1="479.35" y1="277.77" x2="489.35" y2="267.77"/><line class="cls-4" x1="479.35" y1="264.77" x2="489.35" y2="254.77"/><line class="cls-4" x1="479.35" y1="251.77" x2="489.35" y2="241.77"/><line class="cls-4" x1="479.35" y1="238.77" x2="489.35" y2="228.77"/><line class="cls-4" x1="479.35" y1="225.77" x2="489.35" y2="215.77"/><line class="cls-4" x1="479.35" y1="212.77" x2="489.35" y2="202.77"/><line class="cls-4" x1="479.35" y1="199.77" x2="489.35" y2="189.77"/><line class="cls-4" x1="479.35" y1="186.77" x2="489.35" y2="176.77"/><line class="cls-4" x1="479.35" y1="173.77" x2="489.35" y2="163.77"/><line class="cls-4" x1="479.35" y1="160.77" x2="489.35" y2="150.77"/><line class="cls-4" x1="479.35" y1="147.77" x2="489.35" y2="137.77"/><line class="cls-4" x1="479.35" y1="134.77" x2="489.35" y2="124.77"/><line class="cls-4" x1="479.35" y1="121.77" x2="489.35" y2="111.77"/><line class="cls-5" x1="25.14" y1="305.27" x2="81.83" y2="305.27"/><polygon class="cls-2" points="60.57 300.75 81.83 305.27 60.57 309.79 60.57 300.75"/><line class="cls-5" x1="535.37" y1="305.27" x2="478.68" y2="305.27"/><polygon class="cls-2" points="499.94 309.79 478.68 305.27 499.94 300.75 499.94 309.79"/><text class="cls-6" transform="translate(57.81 48.79)">y</text><text class="cls-6" transform="translate(531.14 526.79)">x</text><text class="cls-7" transform="translate(47.69 540.94)">0</text><line class="cls-1" x1="280.26" y1="106.84" x2="256.2" y2="130.9"/><line class="cls-8" x1="256.16" y1="130.94" x2="284.51" y2="130.94"/><line class="cls-1" x1="256.12" y1="479.64" x2="232.07" y2="503.69"/><line class="cls-8" x1="256.16" y1="479.6" x2="284.51" y2="479.6"/><text class="cls-6" transform="translate(42.61 113.24)">L</text><text class="cls-9" transform="translate(62.63 118.23) scale(0.58)">x</text><text class="cls-6" transform="translate(503.67 289.41)">q</text><text class="cls-9" transform="translate(521.67 296.4) scale(0.58)">e</text><text class="cls-6" transform="translate(287.03 144.39)">T</text><text class="cls-9" transform="translate(307.05 149.38) scale(0.58)">n</text><text class="cls-6" transform="translate(33.61 289.41)">q</text><text class="cls-9" transform="translate(51.61 296.4) scale(0.58)">w</text><text class="cls-6" transform="translate(460.72 538.44)">L</text><text class="cls-9" transform="translate(480.74 543.43) scale(0.58)">y</text><text class="cls-6" transform="translate(290.19 490.72)">T</text><text class="cls-9" transform="translate(310.21 495.71) scale(0.58)">s</text></svg>